<svg id="Layer_1" data-name="Layer 1" xmlns="http://www.w3.org/2000/svg" viewBox="0 0 195.75 193.99"><defs><style>.cls-1{fill:#ee5f3f;}.cls-2,.cls-3{fill:#87cefa;}.cls-3{font-size:165.29px;stroke:#87cefa;stroke-miterlimit:10;stroke-width:4px;font-family:PalatinoLinotype-Roman, Palatino Linotype;}</style></defs><title>thoughtline-logo-nobubbles-secondary</title><path class="cls-1" d="M114.39,173a32.8,32.8,0,0,1-23.19-9.75l-1.41-1.39-1.41,1.39A32.82,32.82,0,0,1,65.19,173c-19,0-34.37-16.68-34.37-37.18a41.25,41.25,0,0,1,.35-5.33l.24-1.78-1.74-.43C14,124.39,3,109.49,3,92c0-16,9.37-30.11,23.33-35.22l1.35-.5,0-1.44c0-.67,0-1.34,0-2C27.61,32.35,43,15.68,62,15.68A32.36,32.36,0,0,1,81.6,22.33l1.87,1.42,1.1-2.07C90.7,10.16,102.13,3,114.39,3c14.71,0,27.78,10.11,32.54,25.15l.45,1.45,1.53-.05c.61,0,1.23-.05,1.85-.05,19,0,34.37,16.68,34.37,37.18A39.77,39.77,0,0,1,181,84.44l-.71,1.41,1.21,1a38.11,38.11,0,0,1,13.28,29.36c0,20.5-15.41,37.18-34.36,37.18a31.93,31.93,0,0,1-12.42-2.5l-1.8-.76-.8,1.79C139.67,164.73,127.51,173,114.39,173Z" transform="translate(-1.01 8.74)"/><path class="cls-2" d="M114.39,5c13.83,0,26.14,9.55,30.63,23.75l.92,2.91,3-.11c.62,0,1.21-.05,1.78-.05,17.85,0,32.37,15.78,32.37,35.18a37.76,37.76,0,0,1-3.95,16.86l-1.42,2.83,2.42,2a36.11,36.11,0,0,1,12.58,27.83c0,19.4-14.53,35.18-32.37,35.18a29.85,29.85,0,0,1-11.64-2.35l-3.61-1.52-1.6,3.58C138.16,163.2,126.72,171,114.39,171a30.86,30.86,0,0,1-21.79-9.16L89.79,159,87,161.84A30.84,30.84,0,0,1,65.19,171c-17.85,0-32.37-15.78-32.37-35.18a37.44,37.44,0,0,1,.34-5.07l.47-3.55-3.48-.86a32.23,32.23,0,0,1-17.9-12.13A37.2,37.2,0,0,1,5,92c0-15.12,8.85-28.52,22-33.35l2.71-1-.09-2.89c0-.65,0-1.3,0-1.95,0-19.39,14.52-35.17,32.37-35.17a30.32,30.32,0,0,1,18.41,6.25l3.74,2.83,2.2-4.14C92.12,11.75,102.87,5,114.39,5m0-4C100.87,1,89.08,8.94,82.8,20.74A34.34,34.34,0,0,0,62,13.68c-20.09,0-36.37,17.53-36.37,39.17,0,.7,0,1.39,0,2.08C11.32,60.18,1,74.81,1,92c0,18.61,12,34.19,28.18,38.19a43.06,43.06,0,0,0-.37,5.6C28.82,157.46,45.1,175,65.19,175a34.85,34.85,0,0,0,24.6-10.32A34.83,34.83,0,0,0,114.39,175c14.46,0,27-9.09,32.81-22.25a33.85,33.85,0,0,0,13.19,2.66c20.08,0,36.37-17.54,36.37-39.18a40.23,40.23,0,0,0-14-30.89,41.4,41.4,0,0,0,4.38-18.66c0-21.64-16.28-39.18-36.37-39.18-.64,0-1.28,0-1.93.05C144,12.11,130.38,1,114.39,1Z" transform="translate(-1.01 8.74)"/><text class="cls-3" transform="translate(82.77 143.81) scale(0.97 1)">!</text></svg>