<svg id="Layer_1" data-name="Layer 1" xmlns="http://www.w3.org/2000/svg" viewBox="0 0 196.01 198.26"><defs><style>.cls-1{fill:#87cefa;}.cls-2,.cls-3{fill:#ee5f3f;}.cls-3{font-size:167.2px;font-family:PalatinoLinotype-Bold, Palatino Linotype;font-weight:700;}</style></defs><title>thoughtline-logo-primary</title><path class="cls-1" d="M120.29,165A31.26,31.26,0,0,1,98.2,155.7l-1.41-1.39-1.41,1.39A31.28,31.28,0,0,1,73.28,165c-18.05,0-32.75-15.9-32.75-35.44a39.29,39.29,0,0,1,.34-5.08l.24-1.78-1.74-.43C24.41,118.56,14,104.35,14,87.72,14,72.51,22.9,59,36.2,54.14l1.35-.49,0-1.45c0-.64,0-1.28,0-1.92,0-19.53,14.69-35.43,32.75-35.43A30.8,30.8,0,0,1,88.91,21.2l1.87,1.41,1.1-2.07c5.84-11,16.73-17.8,28.41-17.8,14,0,26.48,9.63,31,24l.45,1.45,1.52-.05c.59,0,1.18-.05,1.77-.05,18.06,0,32.75,15.9,32.75,35.44a37.76,37.76,0,0,1-4,16.92l-.71,1.41,1.21,1a36.33,36.33,0,0,1,12.67,28c0,19.54-14.69,35.43-32.75,35.43a30.28,30.28,0,0,1-11.83-2.39l-1.8-.76-.8,1.79C144.38,157.11,132.79,165,120.29,165Z" transform="translate(-2.98 -0.74)"/><path class="cls-2" d="M120.29,4.74c13.14,0,24.83,9.07,29.1,22.57l.92,2.9,3-.11c.56,0,1.13,0,1.69,0,17,0,30.75,15,30.75,33.44a35.87,35.87,0,0,1-3.75,16l-1.42,2.83,2.42,2a34.35,34.35,0,0,1,12,26.46c0,18.43-13.8,33.43-30.75,33.43A28.37,28.37,0,0,1,153.19,142l-3.61-1.52L148,144.1c-5.12,11.47-16,18.89-27.7,18.89a29.24,29.24,0,0,1-20.68-8.71l-2.82-2.79L94,154.28A29.28,29.28,0,0,1,73.28,163c-17,0-30.75-15-30.75-33.44a35.23,35.23,0,0,1,.33-4.81l.47-3.56-3.48-.86a30.68,30.68,0,0,1-17-11.52A35.35,35.35,0,0,1,16,87.72C16,73.35,24.37,60.61,36.89,56l2.71-1-.09-2.88c0-.62,0-1.24,0-1.86,0-18.43,13.79-33.43,30.75-33.43A28.81,28.81,0,0,1,87.7,22.79l3.74,2.83,2.21-4.14c5.49-10.32,15.7-16.74,26.64-16.74m0-4C107.38.74,96.11,8.33,90.11,19.6a32.81,32.81,0,0,0-19.89-6.75c-19.2,0-34.75,16.76-34.75,37.43,0,.67,0,1.33,0,2-13.7,5-23.55,19-23.55,35.45,0,17.78,11.51,32.66,26.93,36.48a41.09,41.09,0,0,0-.36,5.35c0,20.68,15.56,37.44,34.75,37.44a33.27,33.27,0,0,0,23.51-9.87,33.27,33.27,0,0,0,23.5,9.87c13.82,0,25.75-8.69,31.35-21.26a32.4,32.4,0,0,0,12.6,2.54c19.19,0,34.75-16.76,34.75-37.43a38.44,38.44,0,0,0-13.38-29.52,39.57,39.57,0,0,0,4.18-17.82c0-20.68-15.55-37.44-34.75-37.44-.61,0-1.22,0-1.84.05C148.54,11.35,135.57.74,120.29.74Z" transform="translate(-2.98 -0.74)"/><path class="cls-1" d="M32.74,184.08a13.17,13.17,0,1,1,13.17-13.16A13.17,13.17,0,0,1,32.74,184.08Z" transform="translate(-2.98 -0.74)"/><path class="cls-2" d="M32.74,159.75a11.17,11.17,0,1,1-11.16,11.17,11.18,11.18,0,0,1,11.16-11.17m0-4a15.17,15.17,0,1,0,15.17,15.17,15.17,15.17,0,0,0-15.17-15.17Z" transform="translate(-2.98 -0.74)"/><path class="cls-1" d="M11.68,197a6.71,6.71,0,1,1,6.71-6.71A6.71,6.71,0,0,1,11.68,197Z" transform="translate(-2.98 -0.74)"/><path class="cls-2" d="M11.68,185.59a4.71,4.71,0,1,1-4.7,4.7,4.71,4.71,0,0,1,4.7-4.7m0-4a8.71,8.71,0,1,0,8.71,8.7,8.7,8.7,0,0,0-8.71-8.7Z" transform="translate(-2.98 -0.74)"/><text class="cls-3" transform="translate(80.75 143.7) scale(0.97 1)">!</text></svg>