<svg id="Layer_1" data-name="Layer 1" xmlns="http://www.w3.org/2000/svg" viewBox="0 0 194.35 201.33"><defs><style>.cls-1{fill:#87cefa;}.cls-2,.cls-3{fill:#ee5f3f;}.cls-3{font-size:173.74px;font-family:PalatinoLinotype-Bold, Palatino Linotype;font-weight:700;}</style></defs><title>thoughtline-logo-nobubbles-primary</title><path class="cls-1" d="M114.23,171.75a32.57,32.57,0,0,1-23-9.67l-1.41-1.39-1.41,1.39a32.57,32.57,0,0,1-23,9.67c-18.8,0-34.1-16.55-34.1-36.9a39.06,39.06,0,0,1,.35-5.29l.24-1.78-1.74-.43c-15.58-3.86-26.47-18.65-26.47-36,0-15.83,9.31-29.88,23.16-35l1.36-.5-.05-1.44c0-.69,0-1.35,0-2,0-20.34,15.3-36.9,34.11-36.9a32.1,32.1,0,0,1,19.47,6.61l1.87,1.42,1.1-2.07C90.71,10.1,102.06,3,114.23,3c14.59,0,27.57,10,32.28,25l.46,1.45,1.52-.05c.62,0,1.23-.05,1.84-.05,18.81,0,34.11,16.56,34.11,36.9a39.5,39.5,0,0,1-4.13,17.63l-.71,1.41,1.21,1A37.84,37.84,0,0,1,194,115.41c0,20.34-15.3,36.89-34.11,36.89a31.64,31.64,0,0,1-12.32-2.48l-1.8-.76-.8,1.79C139.31,163.55,127.25,171.75,114.23,171.75Z" transform="translate(-1.65 -1)"/><path class="cls-2" d="M114.23,5c13.72,0,25.93,9.47,30.38,23.56l.91,2.91,3-.11c.61,0,1.2-.05,1.76-.05,17.71,0,32.11,15.66,32.11,34.9a37.35,37.35,0,0,1-3.92,16.73l-1.42,2.82,2.42,2A35.8,35.8,0,0,1,192,115.41c0,19.24-14.4,34.89-32.11,34.89A29.56,29.56,0,0,1,148.35,148l-3.61-1.51-1.6,3.57c-5.33,12-16.68,19.72-28.91,19.72a30.6,30.6,0,0,1-21.61-9.09l-2.82-2.79L87,160.66a30.6,30.6,0,0,1-21.61,9.09c-17.7,0-32.1-15.65-32.1-34.9a38.36,38.36,0,0,1,.33-5l.48-3.56-3.48-.86a32,32,0,0,1-17.76-12,36.91,36.91,0,0,1-7.19-22c0-15,8.78-28.29,21.85-33.08l2.71-1-.09-2.89c0-.64,0-1.28,0-1.93,0-19.24,14.4-34.9,32.11-34.9a30.06,30.06,0,0,1,18.26,6.21l3.74,2.83,2.21-4.14C92.13,11.7,102.8,5,114.23,5m0-4C100.8,1,89.1,8.88,82.86,20.6a34.08,34.08,0,0,0-20.67-7c-19.95,0-36.11,17.42-36.11,38.9,0,.69,0,1.38,0,2.06C11.89,59.76,1.65,74.28,1.65,91.38c0,18.48,12,33.94,28,37.91a40.89,40.89,0,0,0-.37,5.56c0,21.49,16.16,38.9,36.1,38.9A34.59,34.59,0,0,0,89.8,163.5a34.58,34.58,0,0,0,24.43,10.25c14.35,0,26.75-9,32.57-22.09a33.56,33.56,0,0,0,13.09,2.64c20,0,36.11-17.41,36.11-38.89a40,40,0,0,0-13.9-30.68,41.14,41.14,0,0,0,4.34-18.52c0-21.48-16.16-38.9-36.11-38.9-.63,0-1.27,0-1.91.05C143.58,12,130.1,1,114.23,1Z" transform="translate(-1.65 -1)"/><text class="cls-3" transform="translate(74.58 149.33) scale(0.97 1)">!</text></svg>