<svg id="Layer_1" data-name="Layer 1" xmlns="http://www.w3.org/2000/svg" viewBox="0 0 195.78 199.74"><defs><style>.cls-1,.cls-3{fill:#ee5f3f;}.cls-2,.cls-4{fill:#87cefa;}.cls-3,.cls-4{stroke:#87cefa;stroke-miterlimit:10;stroke-width:4px;}.cls-4{font-size:165.29px;font-family:PalatinoLinotype-Roman, Palatino Linotype;}</style></defs><title>thoughtline-logo-secondary</title><path class="cls-1" d="M120,164.35a30.91,30.91,0,0,1-21.83-9.17l-1.41-1.4-1.41,1.4a30.93,30.93,0,0,1-21.83,9.17c-17.84,0-32.35-15.7-32.35-35a36.71,36.71,0,0,1,.34-5l.23-1.77L40,122.11c-14.78-3.66-25.1-17.69-25.1-34.13,0-15,8.83-28.35,22-33.16l1.35-.5,0-1.44c0-.66,0-1.28,0-1.9,0-19.3,14.51-35,32.35-35a30.43,30.43,0,0,1,18.47,6.27l1.87,1.41,1.1-2.07C97.66,10.74,108.42,4,120,4c13.84,0,26.15,9.52,30.62,23.68l.46,1.45,1.52-.05c.59,0,1.17,0,1.75,0,17.84,0,32.35,15.71,32.35,35a37.3,37.3,0,0,1-3.92,16.72L182,82.18l1.21,1a35.9,35.9,0,0,1,12.51,27.65c0,19.3-14.51,35-32.35,35a30.06,30.06,0,0,1-11.68-2.36l-1.8-.76-.8,1.79C143.75,156.57,132.31,164.35,120,164.35Z" transform="translate(-1.98 -0.26)"/><path class="cls-2" d="M120,6c13,0,24.51,9,28.72,22.28l.91,2.9,3-.11c.56,0,1.12,0,1.68,0,16.74,0,30.35,14.81,30.35,33A35.41,35.41,0,0,1,181,79.86l-1.42,2.83,2.42,2a33.93,33.93,0,0,1,11.8,26.12c0,18.2-13.62,33-30.36,33a28.05,28.05,0,0,1-10.91-2.2l-3.61-1.52-1.59,3.58c-5,11.32-15.77,18.64-27.33,18.64a28.91,28.91,0,0,1-20.42-8.59L96.72,151l-2.82,2.79a28.91,28.91,0,0,1-20.42,8.59c-16.73,0-30.35-14.81-30.35-33a36,36,0,0,1,.32-4.76l.47-3.56-3.48-.86A30.23,30.23,0,0,1,23.66,108.8,34.87,34.87,0,0,1,16.86,88c0-14.19,8.3-26.77,20.66-31.3l2.71-1-.09-2.88c0-.61,0-1.22,0-1.83,0-18.2,13.61-33,30.35-33a28.46,28.46,0,0,1,17.26,5.86l3.74,2.84,2.2-4.15C99.08,12.33,109.16,6,120,6m0-4C107.19,2,96.05,9.5,90.12,20.64A32.46,32.46,0,0,0,70.45,14c-19,0-34.35,16.57-34.35,37,0,.65,0,1.3,0,2C22.6,57.9,12.86,71.71,12.86,88c0,17.57,11.38,32.29,26.62,36.07a40.06,40.06,0,0,0-.35,5.29c0,20.44,15.38,37,34.35,37a32.9,32.9,0,0,0,23.24-9.75A32.9,32.9,0,0,0,120,166.35c13.66,0,25.45-8.59,31-21a31.9,31.9,0,0,0,12.45,2.52c19,0,34.36-16.57,34.36-37a38,38,0,0,0-13.23-29.18A39.08,39.08,0,0,0,188.66,64c0-20.44-15.38-37-34.35-37-.61,0-1.21,0-1.82,0C147.88,12.49,135.06,2,120,2Z" transform="translate(-1.98 -0.26)"/><circle class="cls-3" cx="31.43" cy="169.98" r="14.99"/><circle class="cls-3" cx="10.61" cy="189.14" r="8.61"/><text class="cls-4" transform="translate(84.8 143.81) scale(0.97 1)">!</text></svg>